HIERARCHY
ROOT Hips
{
    OFFSET 0.000 93.594 0.000
    CHANNELS 6 Xposition Yposition Zposition Yrotation Xrotation Zrotation
    JOINT RightHip
    {
        OFFSET -9.500 -1.594 0.000
        CHANNELS 3 Yrotation Xrotation Zrotation
        JOINT RightKnee
        {
            OFFSET 0.000 -42.000 0.000
            CHANNELS 3 Yrotation Xrotation Zrotation
            JOINT RightAnkle
            {
                OFFSET 0.000 -42.000 0.000
                CHANNELS 3 Yrotation Xrotation Zrotation
                End Site
                {
                    OFFSET 0.000 -8.000 17.500
                }
            }
        }
    }
    JOINT LeftHip
    {
        OFFSET 9.500 -1.594 0.000
        CHANNELS 3 Yrotation Xrotation Zrotation
        JOINT LeftKnee
        {
            OFFSET 0.000 -42.000 0.000
            CHANNELS 3 Yrotation Xrotation Zrotation
            JOINT LeftAnkle
            {
                OFFSET 0.000 -42.000 0.000
                CHANNELS 3 Yrotation Xrotation Zrotation
                End Site
                {
                    OFFSET 0.000 -8.000 17.500
                }
            }
        }
    }
    JOINT Chest
    {
        OFFSET 0.000 14.348 0.000
        CHANNELS 3 Yrotation Xrotation Zrotation
        JOINT Chest2
        {
            OFFSET 0.000 9.746 0.000
            CHANNELS 3 Yrotation Xrotation Zrotation
            JOINT Chest3
            {
                OFFSET 0.000 10.149 0.000
                CHANNELS 3 Yrotation Xrotation Zrotation
                JOINT Chest4
                {
                    OFFSET 0.000 9.746 0.000
                    CHANNELS 3 Yrotation Xrotation Zrotation
                    JOINT Neck
                    {
                        OFFSET 0.000 10.417 0.000
                        CHANNELS 3 Yrotation Xrotation Zrotation
                        JOINT Head
                        {
                            OFFSET 0.000 9.000 0.000
                            CHANNELS 3 Yrotation Xrotation Zrotation
                            End Site
                            {
                                OFFSET 0.000 16.000 0.000
                            }
                        }
                    }
                    JOINT RightCollar
                    {
                        OFFSET -3.200 6.945 0.000
                        CHANNELS 3 Yrotation Xrotation Zrotation
                        JOINT RightShoulder
                        {
                            OFFSET -12.800 0.000 0.000
                            CHANNELS 3 Yrotation Xrotation Zrotation
                            JOINT RightElbow
                            {
OFFSET -0 -27 0.000
						CHANNELS 3 Xrotation Yrotation Zrotation
                                JOINT RightWrist
                                {
OFFSET -0 -26 0.000
						CHANNELS 3 Xrotation Yrotation Zrotation
                                    JOINT RightFinger0
                                    {
OFFSET -0.196 -2.56 3.210
						CHANNELS 3 Xrotation Yrotation Zrotation
                                        JOINT RightFinger01
                                        {
OFFSET -0 -3.788 0.000
						CHANNELS 3 Xrotation Yrotation Zrotation
                                            JOINT RightFinger0Nub
                                            {
OFFSET -0 -2.631 0.000
						CHANNELS 3 Xrotation Yrotation Zrotation
                                                End Site
                                                {
OFFSET 0 -2.256 0
                                                }
                                            }
                                        }
                                    }
                                    JOINT RightFinger1
                                    {
OFFSET -0.523 -3.316 2.035
						CHANNELS 3 Xrotation Yrotation Zrotation
                                        JOINT RightFinger11
                                        {
OFFSET 0.094 -5.366 1.028
						CHANNELS 3 Xrotation Yrotation Zrotation
                                            JOINT RightFinger12
                                            {
OFFSET -0 -3.723 0.000
						CHANNELS 3 Xrotation Yrotation Zrotation
                                                JOINT RightFinger1Nub
                                                {
OFFSET -0 -2.111 0.000
						CHANNELS 3 Xrotation Yrotation Zrotation
                                                    End Site
                                                    {
OFFSET 0 -1.857 0
                                                    }
                                                }
                                            }
                                        }
                                    }
                                    JOINT RightFinger2
                                    {
OFFSET -0.532 -3.479 0.778
						CHANNELS 3 Xrotation Yrotation Zrotation
                                        JOINT RightFinger21
                                        {
OFFSET 0.086 -5.322 0.323
						CHANNELS 3 Xrotation Yrotation Zrotation
                                            JOINT RightFinger22
                                            {
OFFSET -0 -4.062 0.000
						CHANNELS 3 Xrotation Yrotation Zrotation
                                                JOINT RightFinger2Nub
                                                {
OFFSET -0 -2.547 0.000
						CHANNELS 3 Xrotation Yrotation Zrotation
                                                    End Site
                                                    {
OFFSET 0 -2.031 0
                                                    }
                                                }
                                            }
                                        }
                                    }
                                    JOINT RightFinger3
                                    {
OFFSET -0.553 -3.461 -0.133
						CHANNELS 3 Xrotation Yrotation Zrotation
                                        JOINT RightFinger31
                                        {
OFFSET 0.023 -4.767 -0.493
						CHANNELS 3 Xrotation Yrotation Zrotation
                                            JOINT RightFinger32
                                            {
OFFSET -0 -3.541 0.000
						CHANNELS 3 Xrotation Yrotation Zrotation
                                                JOINT RightFinger3Nub
                                                {
OFFSET -0 -2.456 0.000
						CHANNELS 3 Xrotation Yrotation Zrotation
                                                    End Site
                                                    {
OFFSET 0 -1.91 0
                                                    }
                                                }
                                            }
                                        }
                                    }
                                    JOINT RightFinger4
                                    {
OFFSET -0.483 -3.251 -1.236
						CHANNELS 3 Xrotation Yrotation Zrotation
                                        JOINT RightFinger41
                                        {
OFFSET 0.023 -4.259 -1.122
						CHANNELS 3 Xrotation Yrotation Zrotation
                                            JOINT RightFinger42
                                            {
OFFSET -0 -2.835 0.000
						CHANNELS 3 Xrotation Yrotation Zrotation
                                                JOINT RightFinger4Nub
                                                {
OFFSET -0 -1.792 0.000
						CHANNELS 3 Xrotation Yrotation Zrotation
                                                    End Site
                                                    {
OFFSET 0 -1.692 0
                                                    }
                                                }
                                            }
                                        }
                                    }
                                }
                            }
                        }
                    }
                    JOINT LeftCollar
                    {
                        OFFSET 3.200 6.945 0.000
                        CHANNELS 3 Yrotation Xrotation Zrotation
                        JOINT LeftShoulder
                        {
                            OFFSET 12.800 0.000 0.000
                            CHANNELS 3 Yrotation Xrotation Zrotation
                            JOINT LeftElbow
                            {
OFFSET -0 -27 0.000
						CHANNELS 3 Xrotation Yrotation Zrotation
                                JOINT LeftWrist
                                {
OFFSET -0 -26 0.000
						CHANNELS 3 Xrotation Yrotation Zrotation
                                    JOINT LeftFinger0
                                    {
OFFSET -0.196 -2.56 3.210
						CHANNELS 3 Xrotation Yrotation Zrotation
                                        JOINT LeftFinger01
                                        {
OFFSET -0 -3.788 0.000
						CHANNELS 3 Xrotation Yrotation Zrotation
                                            JOINT LeftFinger0Nub
                                            {
OFFSET -0 -2.631 0.000
						CHANNELS 3 Xrotation Yrotation Zrotation
                                                End Site
                                                {
OFFSET 0 -2.256 0
                                                }
                                            }
                                        }
                                    }
                                    JOINT LeftFinger1
                                    {
OFFSET -0.523 -3.316 2.035
						CHANNELS 3 Xrotation Yrotation Zrotation
                                        JOINT LeftFinger11
                                        {
OFFSET 0.094 -5.366 1.028
						CHANNELS 3 Xrotation Yrotation Zrotation
                                            JOINT LeftFinger12
                                            {
OFFSET -0 -3.723 0.000
						CHANNELS 3 Xrotation Yrotation Zrotation
                                                JOINT LeftFinger1Nub
                                                {
OFFSET -0 -2.111 0.000
						CHANNELS 3 Xrotation Yrotation Zrotation
                                                    End Site
                                                    {
OFFSET 0 -1.857 0
                                                    }
                                                }
                                            }
                                        }
                                    }
                                    JOINT LeftFinger2
                                    {
OFFSET -0.532 -3.479 0.778
						CHANNELS 3 Xrotation Yrotation Zrotation
                                        JOINT LeftFinger21
                                        {
OFFSET 0.086 -5.322 0.323
						CHANNELS 3 Xrotation Yrotation Zrotation
                                            JOINT LeftFinger22
                                            {
OFFSET -0 -4.062 0.000
						CHANNELS 3 Xrotation Yrotation Zrotation
                                                JOINT LeftFinger2Nub
                                                {
OFFSET -0 -2.547 0.000
						CHANNELS 3 Xrotation Yrotation Zrotation
                                                    End Site
                                                    {
OFFSET 0 -2.031 0
                                                    }
                                                }
                                            }
                                        }
                                    }
                                    JOINT LeftFinger3
                                    {
OFFSET -0.553 -3.461 -0.133
						CHANNELS 3 Xrotation Yrotation Zrotation
                                        JOINT LeftFinger31
                                        {
OFFSET 0.023 -4.767 -0.493
						CHANNELS 3 Xrotation Yrotation Zrotation
                                            JOINT LeftFinger32
                                            {
OFFSET -0 -3.541 0.000
						CHANNELS 3 Xrotation Yrotation Zrotation
                                                JOINT LeftFinger3Nub
                                                {
OFFSET -0 -2.456 0.000
						CHANNELS 3 Xrotation Yrotation Zrotation
                                                    End Site
                                                    {
OFFSET 0 -1.91 0
                                                    }
                                                }
                                            }
                                        }
                                    }
                                    JOINT LeftFinger4
                                    {
OFFSET -0.483 -3.251 -1.236
						CHANNELS 3 Xrotation Yrotation Zrotation
                                        JOINT LeftFinger41
                                        {
OFFSET 0.023 -4.259 -1.122
						CHANNELS 3 Xrotation Yrotation Zrotation
                                            JOINT LeftFinger42
                                            {
OFFSET -0 -2.835 0.000
						CHANNELS 3 Xrotation Yrotation Zrotation
                                                JOINT LeftFinger4Nub
                                                {
OFFSET -0 -1.792 0.000
						CHANNELS 3 Xrotation Yrotation Zrotation
                                                    End Site
                                                    {
OFFSET 0 -1.692 0
                                                    }
                                                }
                                            }
                                        }
                                    }
                                }
                            }
                        }
                    }
                }
            }
        }
    }
}
MOTION

Frames: 5
Frame Time: 0.017
-122.31 93.70 1.67 163.71 4.08 -5.89 -4.05 -10.40 1.21 -0.00 26.91 -0.00 -19.97 -16.17 9.43 2.08 -19.26 7.68 -0.00 26.96 -0.00 15.36 -11.75 -4.90 -4.64 -5.46 1.48 -1.17 -1.37 0.33 -1.96 -2.27 0.56 -2.73 0.86 1.01 -47.55 73.29 -0.67 -13.62 20.64 14.11 15.33 -4.99 0.33 -14.29 0.24 -18.81 -45.13 14.26 17.76 -1.4 15.14 13.43 -49.66 -0 15.92 11.22 -0 -13.90 4.77 -0 0.00 0 -0 0.00 -15 -0 15.69 0 -0 11.25 0 -0 5.63 0 -0 0.00 0 -0 3.23 0 -0 3.23 0 -0 3.23 0 -0 0.00 15 -0 11.71 0 -0 11.71 0 -0 11.71 0 -0 0.00 25 -0 -31.69 0 -0 -31.69 0 -0 -31.69 -2.91 -1.78 -0.14 17.93 -6.89 20.41 -35.52 -20.81 -11.94 13.36 -9.39 -19.90 -16.10 0 -25.11 -22.15 0 19.10 20.44 0 0.00 0.00 0 0.00 -15.00 0 -11.40 0.00 0 2.37 0.00 0 1.18 0.00 0 0.00 0.00 0 -3.52 0.00 0 -3.52 0.00 0 -3.52 0.00 0 0.00 15.00 0 -12.44 0.00 0 -12.44 0.00 0 -12.44 0.00 0 0.00 25.00 0 -9.22 0.00 0 -9.22 0.00 0 -9.22 
-121.67 93.64 1.88 163.41 4.00 -6.02 -3.79 -10.81 1.55 0.00 26.82 0.00 -19.93 -15.78 9.00 2.18 -19.44 8.32 0.00 27.39 -0.00 15.26 -11.73 -5.44 -4.94 -5.34 1.83 -1.24 -1.34 0.41 -2.09 -2.22 0.70 -2.71 0.88 1.00 -45.14 73.24 0.52 -14.07 20.41 14.52 15.49 -4.77 0.36 -13.17 -0.36 -18.03 -45.36 16.2 16.89 0.16 16.06 15.48 -49.18 -0 15.40 12.18 -0 -14.42 4.9 -0 0.00 0 -0 0.00 -15 -0 17.00 0 -0 11.04 0 -0 5.52 0 -0 0.00 0 -0 1.70 0 -0 1.70 0 -0 1.70 0 -0 0.00 15 -0 13.03 0 -0 13.03 0 -0 13.03 0 -0 0.00 25 -0 -30.93 0 -0 -30.93 0 -0 -30.93 -2.34 -1.89 -0.45 16.46 -6.91 20.32 -35.34 -22.09 -11.31 12.98 -9.49 -20.04 -15.36 0 -24.97 -20.68 0 19.25 19.06 0 0.00 0.00 0 0.00 -15.00 0 -11.86 0.00 0 2.14 0.00 0 1.07 0.00 0 0.00 0.00 0 -3.83 0.00 0 -3.83 0.00 0 -3.83 0.00 0 0.00 15.00 0 -12.63 0.00 0 -12.63 0.00 0 -12.63 0.00 0 0.00 25.00 0 -9.22 0.00 0 -9.22 0.00 0 -9.22 
-121.12 93.60 2.06 163.41 4.00 -6.02 -3.89 -11.27 1.75 -0.00 26.90 -0.00 -19.84 -15.49 8.67 1.92 -19.54 8.76 -0.00 27.56 0.00 15.37 -11.65 -5.86 -4.94 -5.34 1.83 -1.24 -1.34 0.41 -2.09 -2.22 0.70 -2.71 0.88 1.00 -45.14 73.24 0.52 -14.07 20.41 14.52 15.49 -4.77 0.36 -13.17 -0.36 -18.03 -45.36 16.2 16.89 0.16 16.06 15.48 -49.18 -0 15.40 12.18 -0 -14.42 4.9 -0 0.00 0 -0 0.00 -15 -0 -6.59 0 -0 9.93 0 -0 4.96 0 -0 0.00 0 -0 -5.43 0 -0 -5.43 0 -0 -5.43 0 -0 0.00 15 -0 -1.87 0 -0 -1.87 0 -0 -1.87 0 -0 0.00 25 -0 -30.93 0 -0 -30.93 0 -0 -30.93 4.79 1.42 -6.83 5.25 -22.58 33.49 -38.61 -18.38 -20.99 14.04 -8.29 -33.28 -15.44 0 -28.59 -20.83 0 15.62 32.84 0 0.00 0.00 0 0.00 -15.00 0 -6.30 0.00 0 6.12 0.00 0 3.06 0.00 0 0.00 0.00 0 4.77 0.00 0 4.77 0.00 0 4.77 0.00 0 0.00 15.00 0 -7.33 0.00 0 -7.33 0.00 0 -7.33 0.00 0 0.00 25.00 0 -2.37 0.00 0 -2.37 0.00 0 -2.37 
-120.63 93.56 2.22 163.41 4.00 -6.02 -3.98 -11.63 1.93 -0.00 26.91 0.00 -19.77 -15.21 8.37 1.71 -19.58 9.15 0.00 27.62 -0.00 15.47 -11.54 -6.23 -4.94 -5.34 1.83 -1.24 -1.34 0.41 -2.09 -2.22 0.70 -2.71 0.88 1.00 -45.14 73.24 0.52 -14.07 20.41 14.52 15.49 -4.77 0.36 -13.17 -0.36 -18.03 -45.36 16.2 16.89 0.16 16.06 15.48 -49.18 -0 15.40 12.18 -0 -14.42 4.9 -0 0.00 0 -0 0.00 -15 -0 -6.59 0 -0 9.83 0 -0 4.92 0 -0 0.00 0 -0 -5.46 0 -0 -5.46 0 -0 -5.46 0 -0 0.00 15 -0 -1.95 0 -0 -1.95 0 -0 -1.95 0 -0 0.00 25 -0 -30.93 0 -0 -30.93 0 -0 -30.93 4.44 2.24 -7.25 5.10 -22.36 33.6 -37.95 -18.09 -21.04 14.51 -8.63 -33.10 -15.64 0 -28.57 -21.23 0 15.65 32.54 0 0.00 0.00 0 0.00 -15.00 0 -6.16 0.00 0 6.22 0.00 0 3.11 0.00 0 0.00 0.00 0 4.21 0.00 0 4.21 0.00 0 4.21 0.00 0 0.00 15.00 0 -7.17 0.00 0 -7.17 0.00 0 -7.17 0.00 0 0.00 25.00 0 -2.09 0.00 0 -2.09 0.00 0 -2.09 
-121.69 93.57 2.13 163.41 4.00 -6.02 2.29 -14.56 1.51 -0.00 31.22 -0.00 -23.41 -12.58 12.41 6.89 -20.37 7.77 -0.00 27.89 -0.00 15.17 -11.86 -4.32 4.09 -6.51 -2.32 1.04 -1.61 -0.54 1.76 -2.64 -0.91 -2.94 0.34 1.10 -76.86 79.73 -17.09 -9.59 19.10 16.46 14.82 -2.95 -0.80 -27.91 0.94 -12.76 -56.03 16.3 16.77 -8.92 11.71 9.76 -51.2 -0 17.49 8.14 -0 -12.33 -0.42 -0 0.00 0 -0 0.00 -15 -0 2.67 0 -0 9.57 0 -0 4.79 0 -0 0.00 0 -0 -1.91 0 -0 -1.91 0 -0 -1.91 0 -0 0.00 15 -0 3.64 0 -0 3.64 0 -0 3.64 0 -0 0.00 25 -0 -26.37 0 -0 -26.37 0 -0 -26.37 -10.73 5.84 -3.03 4.94 -22.06 33.67 -37.38 -17.65 -20.95 14.73 -8.71 -32.71 -15.78 0 -28.53 -21.50 0 15.68 13.87 0 0.00 0.00 0 0.00 -15.00 0 -5.72 0.00 0 6.34 0.00 0 3.17 0.00 0 0.00 0.00 0 2.62 0.00 0 2.62 0.00 0 2.62 0.00 0 0.00 15.00 0 -6.98 0.00 0 -6.98 0.00 0 -6.98 0.00 0 0.00 25.00 0 -1.77 0.00 0 -1.77 0.00 0 -1.77 
